HIERARCHY
ROOT Pelvis
{

	OFFSET     0.000000     0.000000     0.000000
	CHANNELS 6 Xposition Yposition Zposition Zrotation Xrotation Yrotation
	JOINT LowerBack
	{

		OFFSET    -0.000691     0.176488     0.017766
		CHANNELS 3 Zrotation Xrotation Yrotation
		JOINT Chest
		{

			OFFSET    -0.002754     0.128976    -0.000512
			CHANNELS 3 Zrotation Xrotation Yrotation
			JOINT back3
			{

				OFFSET     0.002471     0.201657    -0.000850
				CHANNELS 3 Zrotation Xrotation Yrotation
				JOINT Neck
				{

					OFFSET     0.001840     0.072570     0.000595
					CHANNELS 3 Zrotation Xrotation Yrotation
					JOINT Head
					{

						OFFSET     0.003323     0.152818     0.030907
						CHANNELS 3 Zrotation Xrotation Yrotation
						JOINT joint7
						{

							OFFSET     0.000612     0.183936     0.002625
							CHANNELS 3 Zrotation Xrotation Yrotation
							End Site
							{
								OFFSET     0.000000     0.000000     0.018310
							}
						}

					}

				}

				JOINT LeftCollar
				{

					OFFSET     0.053456     0.093486     0.002205
					CHANNELS 3 Zrotation Xrotation Yrotation
					JOINT LeftShoulder
					{

						OFFSET     0.112884    -0.020868     0.002319
						CHANNELS 3 Zrotation Xrotation Yrotation
						JOINT LeftElbow
						{

							OFFSET     0.297302     0.003523    -0.020737
							CHANNELS 3 Zrotation Xrotation Yrotation
							JOINT LeftWrist
							{

								OFFSET     0.290007     0.004431    -0.007313
								CHANNELS 3 Zrotation Xrotation Yrotation
								JOINT lf_hand
								{

									OFFSET     0.117001    -0.002589    -0.008771
									CHANNELS 3 Zrotation Xrotation Yrotation
									End Site
									{
										OFFSET     0.000000    -0.009821     0.000000
									}
								}

							}

						}

					}

				}

				JOINT RightCollar
				{

					OFFSET    -0.048666     0.096092     0.000301
					CHANNELS 3 Zrotation Xrotation Yrotation
					JOINT RightShoulder
					{

						OFFSET    -0.115072    -0.022479    -0.001894
						CHANNELS 3 Zrotation Xrotation Yrotation
						JOINT RightElbow
						{

							OFFSET    -0.297072     0.004954    -0.020752
							CHANNELS 3 Zrotation Xrotation Yrotation
							JOINT RightWrist
							{

								OFFSET    -0.292425    -0.005826    -0.023258
								CHANNELS 3 Zrotation Xrotation Yrotation
								JOINT rt_hand
								{

									OFFSET    -0.118185    -0.001061    -0.015047
									CHANNELS 3 Zrotation Xrotation Yrotation
									End Site
									{
										OFFSET     0.000000    -0.009987     0.000000
									}
								}

							}

						}

					}

				}

			}

			JOINT joint13
			{

				OFFSET     0.125914     0.117470     0.000000
				CHANNELS 3 Zrotation Xrotation Yrotation
				End Site
				{
					OFFSET     0.000000     0.000000    -0.017144
				}
			}

			JOINT joint14
			{

				OFFSET    -0.120063     0.114907     0.000000
				CHANNELS 3 Zrotation Xrotation Yrotation
				End Site
				{
					OFFSET     0.000000     0.000000    -0.016479
				}
			}

		}

	}

	JOINT RightHip
	{

		OFFSET    -0.109283    -0.057257     0.000987
		CHANNELS 3 Zrotation Xrotation Yrotation
		JOINT RightKnee
		{

			OFFSET     0.002149    -0.429339     0.038617
			CHANNELS 3 Zrotation Xrotation Yrotation
			JOINT RightAnkle
			{

				OFFSET    -0.001765    -0.522522    -0.077092
				CHANNELS 3 Zrotation Xrotation Yrotation
				JOINT r_ball
				{

					OFFSET    -0.000000    -0.037315     0.142913
					CHANNELS 3 Zrotation Xrotation Yrotation
					End Site
					{
						OFFSET     0.000000     0.000000     0.014648
					}
				}

			}

		}

	}

	JOINT LeftHip
	{

		OFFSET     0.098180    -0.056757     0.003895
		CHANNELS 3 Zrotation Xrotation Yrotation
		JOINT LeftKnee
		{

			OFFSET     0.007057    -0.430531     0.035812
			CHANNELS 3 Zrotation Xrotation Yrotation
			JOINT LeftAnkle
			{

				OFFSET    -0.005475    -0.521755    -0.078136
				CHANNELS 3 Zrotation Xrotation Yrotation
				JOINT lf_ball
				{

					OFFSET     0.000065    -0.036737     0.143337
					CHANNELS 3 Zrotation Xrotation Yrotation
					End Site
					{
						OFFSET     0.000000     0.000000     0.014648
					}
				}

			}

		}

	}

}

MOTION
Frames: 5
Frame Time: 0.033333
   -1.586479     0.918919     1.628766    -0.714200     5.351844   -52.188526    -0.108987    -3.451047    10.115038     1.130083    11.689111    17.812389     0.000000     0.000000     0.000000     0.000000     0.000000     0.000000    -9.291678   -29.542685   -10.167630     0.000000     0.000000     0.000000    15.327769     1.779491     6.492204   -88.552704    15.646949    30.933834     1.268385     2.095261   -62.374397    11.111283     7.025561    -8.713435     0.000000     0.000000     0.000000   -25.314920     3.378289    -7.101611    61.279720    40.085709    29.862446    -1.497669     2.197484    68.548340    -4.092947    -6.536318    20.991278     0.000000     0.000000     0.000000     0.000000     0.000000     0.000000     0.000000     0.000000     0.000000    11.568679    26.373098   -19.369535     0.000000   -19.841291     0.000000    -5.845148    -6.321416     0.532930     0.000000     0.000000     0.000000     6.946070   -21.556644    27.717901     0.000000    -8.437904     0.000000     2.457556    -3.580717    10.664093     0.000000     0.000000     0.000000 
   -1.617835     0.911337     1.671032    -0.945330     5.811373   -50.616714    -1.012668    -3.434705    10.257745     0.167385    11.334496    17.529163     0.000000     0.000000     0.000000     0.000000     0.000000     0.000000    -7.729138   -34.050236   -11.779771     0.000000     0.000000     0.000000    15.497414     1.613681     5.827510   -87.137230    14.570031    29.777050     1.276532     2.090398   -62.490929    11.342459     7.009649   -10.133565     0.000000     0.000000     0.000000   -25.107338     3.125114    -6.644014    67.249680    39.067856    24.172518    -1.486861     2.196611    68.486069    -4.680893    -6.808015    20.668093     0.000000     0.000000     0.000000     0.000000     0.000000     0.000000     0.000000     0.000000     0.000000    12.996761    30.363510   -20.934404     0.000000   -22.655542     0.000000    -7.078063    -3.597210     0.345566     0.000000     0.000000     0.000000     6.527946   -22.608889    25.792736     0.000000    -8.466329     0.000000     1.805760    -1.214662     6.993279     0.000000     0.000000     0.000000 
   -1.646927     0.905140     1.719296    -0.600172     4.864491   -49.327717    -2.269592    -3.274393    10.576856    -1.252666    10.752587    17.109579     0.000000     0.000000     0.000000     0.000000     0.000000     0.000000    -6.047261   -36.279804   -13.428247     0.000000     0.000000     0.000000    15.404441     1.452259     5.299191   -85.318588    15.411344    26.932081     1.249218     2.082827   -61.904602    11.697202     7.042844   -11.182009     0.000000     0.000000     0.000000   -24.791229     2.846503    -6.156834    74.066376    38.067585    17.342402    -1.393363     2.149398    65.903687    -6.100681    -6.888009    18.582541     0.000000     0.000000     0.000000     0.000000     0.000000     0.000000     0.000000     0.000000     0.000000    10.657327    29.447182   -21.109459     0.000000   -14.529485     0.000000   -12.074283    -3.810401     1.624450     0.000000     0.000000     0.000000     6.310967   -23.096008    24.857367     0.000000    -7.962346     0.000000     1.558811     0.225166     5.219220     0.000000     0.000000     0.000000 
   -1.674423     0.905294     1.771572     0.024058     3.189460   -47.921383    -3.561945    -3.013706    10.746445    -2.786756    10.139025    16.501509     0.000000     0.000000     0.000000     0.000000     0.000000     0.000000    -5.224227   -35.008793   -14.295802     0.000000     0.000000     0.000000    14.816620     1.311857     4.981364   -83.968338    17.835207    22.842945     1.203657     2.060455   -60.580868    12.199889     7.291772   -11.619851     0.000000     0.000000     0.000000   -24.379898     2.534219    -5.590540    80.942070    36.933247     9.918213    -1.248588     2.091013    62.010315    -8.076949    -6.851924    15.591020     0.000000     0.000000     0.000000     0.000000     0.000000     0.000000     0.000000     0.000000     0.000000     9.875505    31.861515   -22.962187     0.000000   -14.585007     0.000000   -23.158148     2.440888     6.482207     0.000000     0.000000     0.000000     5.482919   -24.602049    22.522942     0.000000     3.197822     0.000000     1.771743    -5.551421     7.004777     0.000000     0.000000     0.000000 
   -1.700993     0.911324     1.825870     0.794605     1.143570   -46.401436    -4.553471    -2.700999    10.439314    -4.104612     9.688359    15.638503     0.000000     0.000000     0.000000     0.000000     0.000000     0.000000    -5.193332   -31.899347   -14.257236     0.000000     0.000000     0.000000    13.969781     1.183442     4.762463   -83.310623    21.137571    18.161665     1.140869     2.023970   -58.814575    12.809429     7.627102   -11.869204     0.000000     0.000000     0.000000   -23.910864     2.244995    -5.055447    86.972137    35.752735     2.760563    -1.097349     1.992146    57.691872   -10.132606    -6.634051    12.357333     0.000000     0.000000     0.000000     0.000000     0.000000     0.000000     0.000000     0.000000     0.000000     9.959702    38.060627   -24.491596     0.000000   -22.662401     0.000000   -29.171741    13.149170    12.056813     0.000000     0.000000     0.000000     1.881460   -21.862808    16.745564     0.000000     5.081221     0.000000     2.715784    -2.917239    11.316891     0.000000     0.000000     0.000000 
